<svg width="51" height="50" viewBox="0 0 51 50" fill="none" xmlns="http://www.w3.org/2000/svg">
<path d="M25.8 49.5C12.269 49.5 1.29999 38.531 1.29999 25C1.29999 11.469 12.269 0.5 25.8 0.5C39.331 0.5 50.3 11.469 50.3 25C50.3 38.531 39.331 49.5 25.8 49.5Z" fill="white"/>
<path d="M25.8 49.5C12.269 49.5 1.29999 38.531 1.29999 25C1.29999 11.469 12.269 0.5 25.8 0.5C39.331 0.5 50.3 11.469 50.3 25C50.3 38.531 39.331 49.5 25.8 49.5Z" stroke="#EE2C3C"/>
<path d="M10.5718 22.439L11.6484 22.095C12.6572 21.7726 13.735 22.2936 14.167 23.3123L15.0268 25.3397C15.4014 26.2231 15.1935 27.262 14.5128 27.9082L12.6185 29.7062C12.7354 30.7816 13.0969 31.8406 13.703 32.8832C14.3092 33.9257 15.0662 34.7905 15.9741 35.4776L18.2493 34.7189C19.1117 34.4313 20.0509 34.7618 20.5799 35.539L21.8122 37.3495C22.4271 38.2529 22.3166 39.4993 21.5535 40.2653L20.7358 41.0862C19.9219 41.9033 18.7593 42.1997 17.6839 41.8643C15.1451 41.0723 12.8108 38.7211 10.681 34.8107C8.54813 30.8945 7.79538 27.5719 8.42275 24.8429C8.68675 23.6946 9.50427 22.7801 10.5718 22.439Z" fill="#EE2C3C"/>
<rect x="20.8" y="8" width="24" height="24" rx="12" fill="url(#paint0_linear_157_11931)"/>
<path d="M25.521 26.9819L26.5499 23.2455C25.9138 22.1488 25.5801 20.9068 25.5836 19.6371C25.5836 15.6586 28.8372 12.4238 32.8313 12.4238C34.771 12.4238 36.5925 13.1746 37.9586 14.5376C39.3282 15.9007 40.0825 17.7136 40.079 19.6406C40.079 23.6191 36.8254 26.8539 32.8278 26.8539H32.8243C31.6112 26.8539 30.4189 26.5494 29.3586 25.9751L25.521 26.9819ZM29.5429 24.6708L29.7619 24.8023C30.6865 25.3489 31.7467 25.6361 32.8278 25.6395H32.8313C36.151 25.6395 38.8554 22.9514 38.8554 19.644C38.8554 18.0422 38.2297 16.5373 37.093 15.4026C35.9563 14.2678 34.4407 13.6451 32.8313 13.6451C29.5116 13.6416 26.8072 16.3297 26.8072 19.6371C26.8072 20.7684 27.1235 21.872 27.7283 22.8269L27.8709 23.0552L27.2625 25.2659L29.5429 24.6708Z" fill="white"/>
<path d="M25.7748 26.7297L26.769 23.1213C26.1537 22.0661 25.8304 20.8657 25.8304 19.641C25.8339 15.8008 28.9728 12.6768 32.8313 12.6768C34.705 12.6768 36.4604 13.4033 37.7813 14.7179C39.1023 16.0326 39.8288 17.7831 39.8288 19.6444C39.8288 23.4846 36.6863 26.6086 32.8313 26.6086H32.8278C31.6564 26.6086 30.5058 26.3145 29.4838 25.761L25.7748 26.7297Z" fill="url(#paint1_linear_157_11931)"/>
<path d="M25.521 26.9819L26.5499 23.2455C25.9138 22.1488 25.5801 20.9068 25.5836 19.6371C25.5836 15.6586 28.8372 12.4238 32.8313 12.4238C34.771 12.4238 36.5925 13.1746 37.9586 14.5376C39.3282 15.9007 40.0825 17.7136 40.079 19.6406C40.079 23.6191 36.8254 26.8539 32.8278 26.8539H32.8243C31.6112 26.8539 30.4189 26.5494 29.3586 25.9751L25.521 26.9819ZM29.5429 24.6708L29.7619 24.8023C30.6865 25.3489 31.7467 25.6361 32.8278 25.6395H32.8313C36.151 25.6395 38.8554 22.9514 38.8554 19.644C38.8554 18.0422 38.2297 16.5373 37.093 15.4026C35.9563 14.2678 34.4407 13.6451 32.8313 13.6451C29.5116 13.6416 26.8072 16.3297 26.8072 19.6371C26.8072 20.7684 27.1235 21.872 27.7283 22.8269L27.8709 23.0552L27.2625 25.2659L29.5429 24.6708Z" fill="url(#paint2_linear_157_11931)"/>
<path fill-rule="evenodd" clip-rule="evenodd" d="M31.0202 16.6205C30.8846 16.3195 30.7421 16.3126 30.6135 16.3091C30.5092 16.3057 30.3875 16.3057 30.2659 16.3057C30.1442 16.3057 29.9495 16.3506 29.7827 16.5305C29.6158 16.7104 29.15 17.1463 29.15 18.0355C29.15 18.9211 29.8001 19.7791 29.8904 19.9002C29.9808 20.0213 31.1453 21.8999 32.9842 22.6229C34.5137 23.2249 34.8265 23.1038 35.1568 23.0727C35.487 23.0415 36.2274 22.6367 36.3804 22.2147C36.5298 21.7926 36.5298 21.4328 36.4847 21.3567C36.4395 21.2806 36.3178 21.2356 36.137 21.1457C35.9563 21.0557 35.0664 20.6198 34.8995 20.5575C34.7327 20.4987 34.611 20.4676 34.4928 20.6475C34.3712 20.8274 34.0236 21.2321 33.9193 21.3532C33.815 21.4743 33.7072 21.4882 33.5265 21.3982C33.3457 21.3083 32.7617 21.118 32.07 20.5022C31.5312 20.0247 31.1662 19.4332 31.0619 19.2533C30.9576 19.0734 31.0515 18.9765 31.1418 18.8865C31.2218 18.807 31.3226 18.6755 31.413 18.5717C31.5034 18.4679 31.5346 18.3918 31.5937 18.2707C31.6528 18.1496 31.625 18.0458 31.5798 17.9559C31.5346 17.8694 31.1801 16.9768 31.0202 16.6205Z" fill="white"/>
<defs>
<linearGradient id="paint0_linear_157_11931" x1="32.7994" y1="31.9988" x2="32.7994" y2="7.99916" gradientUnits="userSpaceOnUse">
<stop stop-color="#20B038"/>
<stop offset="1" stop-color="#60D66A"/>
</linearGradient>
<linearGradient id="paint1_linear_157_11931" x1="32.8014" y1="26.729" x2="32.8014" y2="12.6763" gradientUnits="userSpaceOnUse">
<stop stop-color="#20B038"/>
<stop offset="1" stop-color="#60D66A"/>
</linearGradient>
<linearGradient id="paint2_linear_157_11931" x1="32.8014" y1="26.9805" x2="32.8014" y2="12.4238" gradientUnits="userSpaceOnUse">
<stop stop-color="#F9F9F9"/>
<stop offset="1" stop-color="white"/>
</linearGradient>
</defs>
</svg>
